<?xml version="1.0"?>
<svg xmlns="http://www.w3.org/2000/svg" width="512" height="512" viewBox="0 0 512 512"><g><path d="M400,336a24,24,0,1,0,24,24A24.028,24.028,0,0,0,400,336Zm0,32a8,8,0,1,1,8-8A8.009,8.009,0,0,1,400,368Z"/><path d="M112,336a24,24,0,1,0,24,24A24.028,24.028,0,0,0,112,336Zm0,32a8,8,0,1,1,8-8A8.009,8.009,0,0,1,112,368Z"/><path d="M497.22,256.09l-99.19-15.26-25.3-75.17a.88.88,0,0,0-.05-.15l-8.1-24.06A7.992,7.992,0,0,0,357,136H288V104a8,8,0,0,0-8-8H184a8,8,0,0,0-8,8v32H104a8.011,8.011,0,0,0-7.65,5.65L66.09,240H24a7.992,7.992,0,0,0-7.99,7.64c-.09.16-.19.32-.27.48C13.03,252.82,8,261.58,8,272v88a8,8,0,0,0,8,8H56.58a55.991,55.991,0,0,0,110.84-.03c.19.01.39.03.58.03H344.58a55.994,55.994,0,0,0,110.84,0H496a8,8,0,0,0,8-8V264A8,8,0,0,0,497.22,256.09ZM359.33,176l21.54,64H240V176ZM192,112h80v24H192Zm-82.09,40H351.25l2.69,8H107.45ZM24,296h8l.01,8H24Zm88,104a40,40,0,1,1,40-40A40.04,40.04,0,0,1,112,400Zm112-48H168c-.19,0-.39.02-.58.03A55.991,55.991,0,0,0,56.58,352H24V320h8a16.021,16.021,0,0,0,16-16v-8a16.021,16.021,0,0,0-16-16H24v-8c0-6.15,3.38-12.02,5.61-15.91.02-.03.03-.06.05-.09H224Zm0-112H82.83l19.69-64H224ZM400,400a40,40,0,1,1,40-40A40.04,40.04,0,0,1,400,400Zm88-96H472v-8h16Zm0-24H472a16.021,16.021,0,0,0-16,16v8a16.021,16.021,0,0,0,16,16h16v32H455.42a55.994,55.994,0,0,0-110.84,0H240V256H391.39L488,270.86Z"/><path d="M279,264H256a8,8,0,0,0,0,16h23a8,8,0,0,0,0-16Z"/><path d="M208,264H184a8,8,0,0,0,0,16h24a8,8,0,0,0,0-16Z"/></g></svg>
