<svg height="512" viewBox="0 0 60 60" width="512" xmlns="http://www.w3.org/2000/svg"><g id="Page-1" fill="none" fill-rule="evenodd"><g id="027---Toll-Booth" fill="rgb(0,0,0)" fill-rule="nonzero" transform="translate(0 -1)"><path id="Shape" d="m60 5c.001274-1.61882673-.9733095-3.07881917-2.4688395-3.69848972-1.49553-.61967056-3.2171142-.27683104-4.3611605.86848972l-32.17 32.18v-14.53c1.3649694-.4952814 2.1792883-1.897032 1.9333986-3.3281097-.2458896-1.4310777-1.4813937-2.480625-2.9333986-2.4918903h-16c-1.45200487.0112653-2.687509 1.0608126-2.93339863 2.4918903-.24588964 1.4310777.56842927 2.8328283 1.93339863 3.3281097v24.36c-1.1957287.4227483-1.99643563 1.5517451-2 2.82v3.28c-.61508907.3551046-.99571308 1.0097779-1 1.72v7c0 1.1045695.8954305 2 2 2h56c1.1045695 0 2-.8954305 2-2v-7c0-1.1045695-.8954305-2-2-2h-1.18c.1164225-.320674.1772954-.6588568.18-1v-1c1.6568542 0 3-1.3431458 3-3v-8c-.0001364-.1159548-.0204389-.2310025-.06-.34l-3.52-9.66c-.4227483-1.1957287-1.5517451-1.9964356-2.82-2h-12l17.23-17.18c.7475073-.74833626 1.1681862-1.76228026 1.17-2.82zm-24 37h-2v-2h1c.5522847 0 1 .4477153 1 1zm-3.94-5.34c-.0395611.1089975-.0598636.2240452-.06.34v8c0 1.6568542 1.3431458 3 3 3v1c.0027046.3411432.0635775.679326.18 1h-8.18v-10.35l6.24-6.24zm16.94 11.34v1c.0027046.3411432.0635775.679326.18 1h-6.36c.1164225-.320674.1772954-.6588568.18-1v-1zm-8 1c0 .5522847-.4477153 1-1 1h-2c-.5522847 0-1-.4477153-1-1v-1h4zm-14.15-12c-.3669885-1.3941797-1.4558203-2.4830115-2.85-2.85l7-7v5.66zm-7.85 1v6h-14v-24h14zm2 7v-7c0-1.1045695.8954305-2 2-2s2 .8954305 2 2v12h-4zm12-14.17v-5.66l4-4v5.66zm6-11.66 4-4v5.65l-4 4zm6-6 4-4v5.65l-4 4zm-41 2.83h16c.5522847 0 1 .4477153 1 1s-.4477153 1-1 1h-16c-.55228475 0-1-.4477153-1-1s.44771525-1 1-1zm-1 31c0-.5522847.44771525-1 1-1h15v4h-16zm55 12h-56v-7h56zm-3-10c0 .5522847-.4477153 1-1 1h-2c-.5522847 0-1-.4477153-1-1v-1h4zm2-3h-22c-.5522847 0-1-.4477153-1-1v-1h24v1c0 .5522847-.4477153 1-1 1zm-1-4v-1c0-.5522847.4477153-1 1-1h1v2zm-2.4-15c.4210301.0001791.7968498.2640526.94.66l3.46 9.52v.82h-1c-1.6568542 0-3 1.3431458-3 3v1h-16v-1c0-1.6568542-1.3431458-3-3-3h-1v-.82l2.58-7.11 3.07-3.07zm3.81-20.59-6.41 6.41v-5.65l3.59-3.59c.5731318-.56973222 1.4328156-.73856407 2.1788469-.42790001.7460313.31066405 1.231794 1.03976981 1.2311531 1.84790001-.0022328.52957685-.2144122 1.03664971-.59 1.41z"/><path id="Shape" d="m9 32h6c1.1045695 0 2-.8954305 2-2v-6c0-1.1045695-.8954305-2-2-2h-6c-1.1045695 0-2 .8954305-2 2v6c0 1.1045695.8954305 2 2 2zm0-8h6v6h-2v-2c0-.5522847-.4477153-1-1-1s-1 .4477153-1 1v2h-2z"/><path id="Shape" d="m14 34h-4c-.55228475 0-1 .4477153-1 1s.44771525 1 1 1h4c.5522847 0 1-.4477153 1-1s-.4477153-1-1-1z"/><path id="Shape" d="m14 38h-4c-.55228475 0-1 .4477153-1 1s.44771525 1 1 1h4c.5522847 0 1-.4477153 1-1s-.4477153-1-1-1z"/><path id="Shape" d="m39.88 36h12.24c.6147584.0059431 1.193583-.2890707 1.55-.79.3322438-.4793228.4175756-1.0877757.23-1.64l-1.17-3.33c-.2622386-.7332192-.9514017-1.2271858-1.73-1.24h-10c-.7932935-.0039496-1.5027472.4930689-1.77 1.24l-1.13 3.33c-.1875756.5522243-.1022438 1.1606772.23 1.64.356417.5009293.9352416.7959431 1.55.79zm1.24-5h9.76l1 3h-11.81z"/><path id="Shape" d="m47 38h-2c-.5522847 0-1 .4477153-1 1s.4477153 1 1 1h2c.5522847 0 1-.4477153 1-1s-.4477153-1-1-1z"/></g></g></svg>