<?xml version="1.0" encoding="iso-8859-1"?>
<!-- Generator: Adobe Illustrator 19.0.0, SVG Export Plug-In . SVG Version: 6.00 Build 0)  -->
<svg xmlns="http://www.w3.org/2000/svg" xmlns:xlink="http://www.w3.org/1999/xlink" version="1.1" id="Capa_1" x="0px" y="0px" viewBox="0 0 512 512" style="enable-background:new 0 0 512 512;" xml:space="preserve" width="512px" height="512px">
<path d="M396,372c-5.52,0-10,4.48-10,10s4.48,10,10,10s10-4.48,10-10S401.52,372,396,372z" fill="#null"/>
<path d="M507.905,181.929L446,136.633V30c0-5.522-4.477-10-10-10h-80c-5.523,0-10,4.478-10,10v33.463L261.905,1.929  c-3.516-2.572-8.293-2.572-11.81,0l-246,180C1.521,183.812,0,186.81,0,190v80c0,5.522,4.477,10,10,10h56v222c0,5.522,4.477,10,10,10  h360c5.523,0,10-4.478,10-10V280h56c5.523,0,10-4.478,10-10v-80C512,186.81,510.479,183.812,507.905,181.929z M366,40h60v81.999  l-60-43.902V40z M326,492H186V312h140V492z M426,492h-80V302c0-5.522-4.477-10-10-10H176c-5.523,0-10,4.478-10,10v190H86V225  L256,97.5L426,225V492z M492,260h-46v-40c0-3.147-1.482-6.111-4-8L262,77c-3.556-2.666-8.444-2.666-12,0L70,212  c-2.518,1.889-4,4.853-4,8v40H20v-64.926L256,22.39c20.473,14.981,227.84,166.713,236,172.684V260z" fill="#null"/>
<path d="M256,160c-22.056,0-40,17.944-40,40s17.944,40,40,40s40-17.944,40-40S278.056,160,256,160z M256,220  c-11.028,0-20-8.972-20-20s8.972-20,20-20c11.028,0,20,8.972,20,20S267.028,220,256,220z" fill="#null"/>
<path d="M257,431.29c-4.273,0-8.885-2.687-12.986-7.564c-3.554-4.229-9.862-4.774-14.089-1.22  c-4.228,3.554-4.773,9.862-1.219,14.089c5.346,6.36,11.632,10.791,18.294,13.025v11.67c0,5.522,4.477,10,10,10s10-4.478,10-10  v-11.72c11.639-4.128,20-15.243,20-28.28c0-16.542-13.458-30-30-30c-5.514,0-10-4.486-10-10s4.486-10,10-10  c3.542,0,7.283,1.808,10.816,5.227c3.97,3.841,10.3,3.736,14.14-0.232c3.84-3.97,3.736-10.3-0.233-14.141  c-5.075-4.911-10.153-7.688-14.724-9.205V341.29c0-5.522-4.477-10-10-10s-10,4.478-10,10v11.72c-11.639,4.128-20,15.243-20,28.28  c0,16.542,13.458,30,30,30c5.514,0,10,4.486,10,10S262.514,431.29,257,431.29z" fill="#null"/>
<path d="M396,412c-5.523,0-10,4.478-10,10v40c0,5.522,4.477,10,10,10s10-4.478,10-10v-40C406,416.477,401.523,412,396,412z" fill="#null"/>
<g>
</g>
<g>
</g>
<g>
</g>
<g>
</g>
<g>
</g>
<g>
</g>
<g>
</g>
<g>
</g>
<g>
</g>
<g>
</g>
<g>
</g>
<g>
</g>
<g>
</g>
<g>
</g>
<g>
</g>
</svg>
