<?xml version="1.0" encoding="iso-8859-1"?>
<!-- Generator: Adobe Illustrator 19.0.0, SVG Export Plug-In . SVG Version: 6.00 Build 0)  -->
<svg version="1.1" id="Capa_1" xmlns="http://www.w3.org/2000/svg" xmlns:xlink="http://www.w3.org/1999/xlink" x="0px" y="0px"
	 viewBox="0 0 480 480" style="enable-background:new 0 0 480 480;" xml:space="preserve">
<g>
	<g>
		<rect x="280" y="168" width="16" height="16"/>
	</g>
</g>
<g>
	<g>
		<rect x="280" y="136" width="16" height="16"/>
	</g>
</g>
<g>
	<g>
		<rect x="280" y="200" width="16" height="16"/>
	</g>
</g>
<g>
	<g>
		<rect x="280" y="232" width="16" height="16"/>
	</g>
</g>
<g>
	<g>
		<rect x="280" y="264" width="16" height="16"/>
	</g>
</g>
<g>
	<g>
		<rect x="280" y="296" width="16" height="16"/>
	</g>
</g>
<g>
	<g>
		<rect x="280" y="328" width="16" height="16"/>
	</g>
</g>
<g>
	<g>
		<rect x="48" y="144" width="208" height="16"/>
	</g>
</g>
<g>
	<g>
		<rect x="48" y="320" width="208" height="16"/>
	</g>
</g>
<g>
	<g>
		<rect x="320" y="144" width="104" height="16"/>
	</g>
</g>
<g>
	<g>
		<rect x="320" y="320" width="104" height="16"/>
	</g>
</g>
<g>
	<g>
		<path d="M472,184c4.418,0,8-3.582,8-8v-64c0-4.418-3.582-8-8-8H8c-4.418,0-8,3.582-8,8v64c0,4.418,3.582,8,8,8
			c30.928,0,56,25.072,56,56c0,30.928-25.072,56-56,56c-4.418,0-8,3.582-8,8v64c0,4.418,3.582,8,8,8h464c4.418,0,8-3.582,8-8v-64
			c0-4.418-3.582-8-8-8c-30.928,0-56-25.072-56-56C416,209.072,441.072,184,472,184z M400.467,248.019
			c3.745,33.414,30.118,59.788,63.533,63.533V360H16v-48.448c39.517-4.429,67.962-40.054,63.533-79.571
			C75.788,198.566,49.414,172.193,16,168.448V120h448v48.448C424.483,172.877,396.038,208.502,400.467,248.019z"/>
	</g>
</g>
<g>
</g>
<g>
</g>
<g>
</g>
<g>
</g>
<g>
</g>
<g>
</g>
<g>
</g>
<g>
</g>
<g>
</g>
<g>
</g>
<g>
</g>
<g>
</g>
<g>
</g>
<g>
</g>
<g>
</g>
</svg>
