<?xml version="1.0"?>
<svg xmlns="http://www.w3.org/2000/svg" viewBox="0 0 64 64" width="512" height="512"><g id="outline"><path d="M11,25a1,1,0,0,0-1,1.057l2,35A1,1,0,0,0,13,62H45a1,1,0,0,0,1-.943l2-35A1,1,0,0,0,47,25H45.279l.006-.014A6.986,6.986,0,0,0,50.02,13.133l3.908-9.761A1,1,0,0,0,53,2H49a1,1,0,0,0-.928.629l-3.356,8.385A6.986,6.986,0,0,0,39.98,22.867L39.125,25Zm1.226,4.925L12.059,27H38.323l-.849,2.117A9.2,9.2,0,0,0,36,29a9.807,9.807,0,0,0-5.5,1.635A7.81,7.81,0,0,1,25.993,32a7.017,7.017,0,0,1-4.306-1.35A9,9,0,0,0,16.326,29,8.6,8.6,0,0,0,12.226,29.925ZM44.056,60H13.944l-.228-4H44.284Zm1.885-33-.283,4.965c-.584.02-1.309.035-1.658.035a6.6,6.6,0,0,1-1.466-.142L44.479,27ZM41.28,25l.348-.869a6.991,6.991,0,0,0,1.592.631L43.125,25Zm8.4-21h1.845l-3.15,7.869a6.991,6.991,0,0,0-1.592-.631ZM45,13a5,5,0,1,1-5,5A5.006,5.006,0,0,1,45,13ZM40.478,27h1.846l-1.545,3.86-.091-.086a6.708,6.708,0,0,0-1.313-1.023ZM44,34c.165,0,.873-.009,1.543-.029L44.4,54H13.6L12.353,32.144A6.731,6.731,0,0,1,16.326,31a7.017,7.017,0,0,1,4.306,1.35A9,9,0,0,0,25.993,34,9.811,9.811,0,0,0,31.5,32.365,7.809,7.809,0,0,1,36,31a3.863,3.863,0,0,1,3.312,1.226A5.789,5.789,0,0,0,44,34Z"/><rect x="15" y="50" width="2" height="2"/><rect x="19" y="47" width="2" height="2"/></g></svg>
