<svg height="512" viewBox="0 0 64 64" width="512" xmlns="http://www.w3.org/2000/svg"><g id="Layer_7" data-name="Layer 7"><path d="m11 11h3v12h2v-12h3v-2h-8z"/><path d="m25 9a4 4 0 0 0 -4 4v10h2v-4h4v4h2v-10a4 4 0 0 0 -4-4zm-2 8v-4a2 2 0 0 1 4 0v4z"/><path d="m37 9a8.57 8.57 0 0 1 -2 5.54 7.85 7.85 0 0 1 -2-5.23v-.31h-2v.31a9.82 9.82 0 0 0 2.63 6.69 10.54 10.54 0 0 0 -2.63 7h2a8.57 8.57 0 0 1 2-5.54 7.85 7.85 0 0 1 2 5.23v.31h2v-.31a9.82 9.82 0 0 0 -2.63-6.69 10.54 10.54 0 0 0 2.63-7z"/><path d="m8 27h34a1 1 0 0 0 1-1v-20a1 1 0 0 0 -1-1h-34a1 1 0 0 0 -1 1v20a1 1 0 0 0 1 1zm1-20h32v18h-32z"/><path d="m8 37h6a1 1 0 0 0 1-1v-6a1 1 0 0 0 -1-1h-6a1 1 0 0 0 -1 1v6a1 1 0 0 0 1 1zm1-6h4v4h-4z"/><path d="m14 49h-6a1 1 0 0 0 -1 1v6a1 1 0 0 0 1 1h6a1 1 0 0 0 1-1v-6a1 1 0 0 0 -1-1zm-1 6h-4v-4h4z"/><path d="m15.29 37.29-1.7 1.71h-5.59a1 1 0 0 0 -1 1v6a1 1 0 0 0 1 1h6a1 1 0 0 0 1-1v-5.59l1.71-1.7zm-3.7 3.71-2.59 2.59v-2.59zm1.41 4h-2.59l2.59-2.59z"/><path d="m17 30h26v2h-26z"/><path d="m17 34h26v2h-26z"/><path d="m49 35v-33a1 1 0 0 0 -1-1h-46a1 1 0 0 0 -1 1v60a1 1 0 0 0 1 1h44a1 1 0 0 0 .6-.22 14.57 14.57 0 0 0 2.4.22 14 14 0 0 0 0-28zm-46 26v-58h44v32.16a14 14 0 0 0 -8.71 4.84h-21.29v2h19.89a14.1 14.1 0 0 0 -1 2h-18.89v2h18.33a14.14 14.14 0 0 0 -.33 3v1h-18v2h18.33a13.6 13.6 0 0 0 .61 2h-18.94v2h19.89a14.09 14.09 0 0 0 4.94 5zm46 0a12 12 0 1 1 12-12 12 12 0 0 1 -12 12z"/><path d="m54 49a3 3 0 1 0 3 3 3 3 0 0 0 -3-3zm0 4a1 1 0 1 1 1-1 1 1 0 0 1 -1 1z"/><path d="m47 46a3 3 0 1 0 -3 3 3 3 0 0 0 3-3zm-3 1a1 1 0 1 1 1-1 1 1 0 0 1 -1 1z"/><path d="m39.15 48h19.7v2h-19.7z" transform="matrix(.406 -.914 .914 .406 -15.68 73.88)"/></g></svg>