<?xml version="1.0" encoding="iso-8859-1"?>
<!-- Generator: Adobe Illustrator 19.0.0, SVG Export Plug-In . SVG Version: 6.00 Build 0)  -->
<svg version="1.1" id="Capa_1" xmlns="http://www.w3.org/2000/svg" xmlns:xlink="http://www.w3.org/1999/xlink" x="0px" y="0px"
	 viewBox="0 0 512 512" style="enable-background:new 0 0 512 512;" xml:space="preserve">
<g>
	<g>
		<path d="M470.789,0.131H81.483c-22.724,0-41.211,18.487-41.211,41.211v26.741C17.982,68.586,0,86.862,0,109.272v30.746v76.956
			v145.713c0,22.724,18.487,41.211,41.211,41.211h113.7c5.519,0,9.994-4.474,9.994-9.994s-4.475-9.994-9.994-9.994h-113.7
			c-11.702,0-21.223-9.521-21.223-21.223V226.968H451.74v135.719c0,11.483-9.173,20.842-20.572,21.19
			c-10.231-47.707-52.72-83.586-103.437-83.586c-58.332,0-105.79,47.457-105.79,105.789c0,58.332,47.457,105.789,105.79,105.789
			c58.331,0,105.789-47.457,105.789-105.789c0-0.77-0.013-1.536-0.029-2.302c21.34-1.529,38.238-19.368,38.238-41.091v-26.741
			c22.29-0.503,40.272-18.779,40.272-41.188V41.343C512,18.619,493.513,0.131,470.789,0.131z M327.73,491.881
			c-47.311,0-85.802-38.49-85.802-85.801c0-47.311,38.491-85.801,85.802-85.801c47.311,0,85.801,38.49,85.801,85.801
			C413.531,453.391,375.041,491.881,327.73,491.881z M451.74,206.979H19.988v-56.967H40.31c5.519,0,9.994-4.474,9.994-9.994
			s-4.475-9.994-9.994-9.994H19.988v-20.752c0-11.702,9.521-21.224,21.223-21.224h389.305c11.702,0,21.223,9.521,21.223,21.224
			v20.752h-335.88c-5.519,0-9.994,4.474-9.994,9.994s4.475,9.994,9.994,9.994H451.74V206.979z M492.012,294.758
			c0,11.385-9.019,20.679-20.283,21.176v-98.96v-76.956v-30.746c0-22.725-18.487-41.212-41.211-41.212H60.26V41.343
			c0-11.702,9.521-21.223,21.223-21.223h389.306c11.702,0,21.223,9.521,21.223,21.223V294.758z"/>
	</g>
</g>
<g>
	<g>
		<path d="M84.691,132.951c-1.869-1.859-4.437-2.928-7.066-2.928c-2.64,0-5.207,1.069-7.066,2.928
			c-1.869,1.859-2.928,4.437-2.928,7.066c0,2.628,1.059,5.207,2.928,7.066c1.859,1.859,4.427,2.928,7.066,2.928
			c2.628,0,5.197-1.069,7.066-2.928c1.858-1.859,2.928-4.437,2.928-7.066C87.62,137.388,86.55,134.81,84.691,132.951z"/>
	</g>
</g>
<g>
	<g>
		<path d="M141.051,254.746c-9.174,0-17.775,2.477-25.192,6.777c-7.418-4.301-16.019-6.777-25.193-6.777
			c-27.788,0-50.394,22.606-50.394,50.393c0,27.787,22.606,50.394,50.394,50.394c9.174,0,17.775-2.477,25.193-6.777
			c7.418,4.301,16.019,6.777,25.192,6.777c27.788,0,50.394-22.607,50.394-50.394C191.445,277.352,168.839,254.746,141.051,254.746z
			 M99.861,334.12c-2.902,0.924-5.992,1.425-9.196,1.425c-16.766-0.001-30.406-13.64-30.406-30.406
			c0-16.765,13.639-30.404,30.406-30.404c3.204,0,6.293,0.502,9.196,1.425c-5.79,8.204-9.205,18.198-9.205,28.98
			S94.072,325.916,99.861,334.12z M115.858,322.146c-3.29-4.857-5.213-10.712-5.213-17.006c0-6.295,1.923-12.149,5.213-17.006
			c3.29,4.857,5.213,10.711,5.213,17.006C121.071,311.434,119.147,317.289,115.858,322.146z M141.051,335.544
			c-3.205,0-6.293-0.502-9.196-1.425c5.79-8.204,9.205-18.198,9.205-28.98c0-10.783-3.415-20.776-9.205-28.98
			c2.902-0.923,5.992-1.425,9.196-1.425c16.765,0,30.406,13.639,30.406,30.404C171.456,321.905,157.816,335.544,141.051,335.544z"/>
	</g>
</g>
<g>
	<g>
		<path d="M197.955,386.835c-1.858-1.859-4.436-2.928-7.065-2.928s-5.207,1.069-7.066,2.928c-1.859,1.859-2.928,4.437-2.928,7.066
			c0,2.638,1.068,5.207,2.928,7.066c1.859,1.869,4.437,2.928,7.066,2.928s5.207-1.059,7.065-2.928
			c1.859-1.859,2.929-4.437,2.929-7.066S199.815,388.694,197.955,386.835z"/>
	</g>
</g>
<g>
	<g>
		<path d="M327.73,396.843c-9.432,0-17.104-6.549-17.104-14.599s7.673-14.599,17.104-14.599s17.103,6.549,17.103,14.599
			c0,5.52,4.475,9.994,9.994,9.994c5.519,0,9.994-4.474,9.994-9.994c0-15.843-11.486-29.222-27.097-33.302v-6.523
			c0-5.52-4.475-9.994-9.994-9.994c-5.519,0-9.994,4.474-9.994,9.994v6.523c-15.612,4.08-27.098,17.459-27.098,33.302
			c0,19.072,16.639,34.587,37.093,34.587c9.432,0,17.103,6.549,17.103,14.599c0,8.049-7.673,14.599-17.103,14.599
			c-9.431,0-17.104-6.549-17.104-14.599c0-5.52-4.475-9.994-9.994-9.994c-5.519,0-9.994,4.474-9.994,9.994
			c0,15.843,11.486,29.222,27.098,33.301v5.009c0,5.52,4.475,9.994,9.994,9.994c5.519,0,9.994-4.474,9.994-9.994v-5.009
			c15.611-4.08,27.097-17.459,27.097-33.301C364.822,412.358,348.182,396.843,327.73,396.843z"/>
	</g>
</g>
<g>
	<g>
		<path d="M327.73,244.751c-5.519,0-9.994,4.474-9.994,9.994v15.991c0,5.52,4.475,9.994,9.994,9.994
			c5.519,0,9.994-4.474,9.994-9.994v-15.991C337.724,249.226,333.249,244.751,327.73,244.751z"/>
	</g>
</g>
<g>
	<g>
		<path d="M393.065,264.686c-5.014-2.319-10.95-0.129-13.264,4.88l-6.707,14.516c-2.315,5.011-0.13,10.95,4.881,13.264
			c1.357,0.628,2.782,0.924,4.185,0.924c3.777,0,7.392-2.152,9.08-5.805l6.707-14.516
			C400.26,272.939,398.076,267.001,393.065,264.686z"/>
	</g>
</g>
<g>
	<g>
		<path d="M282.366,284.082l-6.708-14.516c-2.315-5.01-8.252-7.198-13.264-4.88c-5.01,2.316-7.195,8.254-4.879,13.264l6.708,14.516
			c1.687,3.654,5.302,5.805,9.078,5.805c1.403,0,2.829-0.297,4.187-0.924C282.497,295.031,284.682,289.092,282.366,284.082z"/>
	</g>
</g>
<g>
</g>
<g>
</g>
<g>
</g>
<g>
</g>
<g>
</g>
<g>
</g>
<g>
</g>
<g>
</g>
<g>
</g>
<g>
</g>
<g>
</g>
<g>
</g>
<g>
</g>
<g>
</g>
<g>
</g>
</svg>
