<svg id="Layer_1" enable-background="new 0 0 511.5 511.5" height="512" viewBox="0 0 511.5 511.5" width="512" xmlns="http://www.w3.org/2000/svg"><g><path d="m400 126.75v-15h-17v-17h-15v17h-16v39h32v9h-32v15h16v16h15v-16h16v-39h-32v-9z"/><path d="m264 103.75h72v15h-72z"/><path d="m296 335.75h16v15h-16z"/><path d="m328 335.75h16v15h-16z"/><path d="m360 335.75h16v15h-16z"/><path d="m208 135.75h128v15h-128z"/><path d="m208 167.75h128v15h-128z"/><path d="m256 199.75h144v15h-144z"/><path d="m320 231.75h80v15h-80z"/><path d="m320 263.75h80v15h-80z"/><path d="m320 295.75h80v15h-80z"/><path d="m279 311.75h24v-60.413l-120-66.667v-65.92h64v-64h177v257h15v-272h-202.106l-68.894 67.894v68.693l-16.5-9.167-151.5 84.167v60.413h24v113h-24v47h192v-15h-177v-17h273v17h-80v15h95v-47h-24v-18h73v-15h-73zm-47-246.894v38.894h-37.894zm-80 119.974 115.056 63.92h-26.711l-88.345-49.08-88.343 49.08h-26.713zm57.456 63.92h-114.911l57.455-31.92zm-89.456 176h-33v-97h-15v97h-33v-113h81zm48 0h-33v-113h33zm48 0h-33v-18h33zm0-33h-33v-80h33zm48 33h-33v-113h33zm-249-128v-33h273v33z"/><path d="m112 272.75h16v15h-16z"/><path d="m144 272.75h16v15h-16z"/><path d="m176 272.75h16v15h-16z"/><path d="m440 328.25c-39.425 0-71.5 32.075-71.5 71.5s32.075 71.5 71.5 71.5 71.5-32.075 71.5-71.5-32.075-71.5-71.5-71.5zm0 128c-31.154 0-56.5-25.346-56.5-56.5s25.346-56.5 56.5-56.5 56.5 25.346 56.5 56.5-25.346 56.5-56.5 56.5z"/><path d="m440 360.25c-21.78 0-39.5 17.72-39.5 39.5s17.72 39.5 39.5 39.5 39.5-17.72 39.5-39.5-17.72-39.5-39.5-39.5zm0 64c-13.509 0-24.5-10.99-24.5-24.5s10.991-24.5 24.5-24.5 24.5 10.99 24.5 24.5-10.991 24.5-24.5 24.5z"/></g></svg>